<svg host="65bd71144e" xmlns="http://www.w3.org/2000/svg" style="background: transparent; background-color: transparent;" xmlns:xlink="http://www.w3.org/1999/xlink" version="1.1" width="722px" height="460px" viewBox="-0.5 -0.5 722 460" content="&lt;mxfile scale=&quot;1&quot; border=&quot;10&quot;&gt;&lt;diagram name=&quot;Page-1&quot; id=&quot;K360mwh1-tznYwXBfldF&quot;&gt;5Zpdb9sgFIZ/je9t8Ed22aRdezNpUqX1cqI2sdGIiTBpkv764RoSG8iUbTFOtpsIDhjw8x4fOHYCuFjtHjlaV19YgWkAwmIXwPsAABin8rc17DtDFCVZZyk5KZTtaHgm71gZQ2XdkAI3g46CMSrIemjMWV3jXAxsiHO2HXZbMjqcdY1KbBmec0Rt6wspRKWsIAyPDU+YlJWeOtUtK3To3RmaChVs25k++sCHAC44Y6IrrXYLTFt6Gkw30OcTrYeVcVyLcy4A3QVviG7Uzal1ib2+221FBH5eo7ytb6WiAZxXYkVlLZJF1Kw7xkuyw3LU+ZJQumCUcWmrWS2vmjeCsx/YMNpLVat/w1zgXc+klv6I2QoLvpddVGusuSpPAomqb3uy6D5VXxFtRMoVysPYR1iyoHi52cGbZpdOyi7+p9jFXtklN83OfGb9sksvz64DpTcC0NJktVC7VpTouprAEaF/G2FiEAxtgsBFEFyCYOYgKJ/m+OU76QoWUHlXYsjQhdjpbw6/RJSUtazmkh+W9nnLjcjN+U41rEhRtFPPOdvURSvRfehBlAgMVUkdqqQOUeAFNJmd1CTI5lIWOYV8dMMoyO7/a42SCTX6ZGkUeg89LW+BBGG1Al4xTt5lF6SnWFKyflJlikuU7+/qXPb6ykgtGi2T7PRNlQvC5Zq6ERu2aRdyiV0CThrjdKLREyvyLtblIQK/ECML4k1uttNCtBM0OH3YGAGr5wf8jNwN18Vd+7Kg3ccoahqSD7EOty6b6UlIMkzyfPhECMRLLAb64mLwEsIG2QOVODhpG8dUSvc2DGMudmqGj0jfP2saOkUG/u5u1FX9Nw3mQIbgMDUG6hhYA31Iebjt89Q9I7v0oi601Y2vS93IUBf8qbqpoW42nrpn5L9e1E1sdcF1qWscd2PzHHu2upmh7mw8da8gQx/mNAGARYJnRWwlQLJlBl5hml5mSwRGqE0cb0Z+5S1/tSG60vqpsS9nOc5zF/bXWdK+N7rMSWRC6q7EfWrqfpw9M5wd+sRu5+LTY/fk7OYpzCN2vRtdFXY/3n7O64zRsNt5+PTY/Xi7id1nbNeUrwq7H283c0avQWaEr7I36u1esY/wQfdGsJsnGa+xfYRvwTcSZEzsI8Z2WT3+I6fLaY9/bIIPPwE=&lt;/diagram&gt;&lt;/mxfile&gt;">
    <defs>
        <style xmlns="http://www.w3.org/1999/xhtml" id="MJX-SVG-styles">
            mjx-container[jax="SVG"] {
  direction: ltr;
}

mjx-container[jax="SVG"] &gt; svg {
  overflow: visible;
  min-height: 1px;
  min-width: 1px;
}

mjx-container[jax="SVG"] &gt; svg a {
  fill: blue;
  stroke: blue;
}

mjx-container[jax="SVG"][display="true"] {
  display: block;
  text-align: center;
  margin: 1em 0;
}

mjx-container[jax="SVG"][display="true"][width="full"] {
  display: flex;
}

mjx-container[jax="SVG"][justify="left"] {
  text-align: left;
}

mjx-container[jax="SVG"][justify="right"] {
  text-align: right;
}

g[data-mml-node="merror"] &gt; g {
  fill: red;
  stroke: red;
}

g[data-mml-node="merror"] &gt; rect[data-background] {
  fill: yellow;
  stroke: none;
}

g[data-mml-node="mtable"] &gt; line[data-line], svg[data-table] &gt; g &gt; line[data-line] {
  stroke-width: 70px;
  fill: none;
}

g[data-mml-node="mtable"] &gt; rect[data-frame], svg[data-table] &gt; g &gt; rect[data-frame] {
  stroke-width: 70px;
  fill: none;
}

g[data-mml-node="mtable"] &gt; .mjx-dashed, svg[data-table] &gt; g &gt; .mjx-dashed {
  stroke-dasharray: 140;
}

g[data-mml-node="mtable"] &gt; .mjx-dotted, svg[data-table] &gt; g &gt; .mjx-dotted {
  stroke-linecap: round;
  stroke-dasharray: 0,140;
}

g[data-mml-node="mtable"] &gt; g &gt; svg {
  overflow: visible;
}

[jax="SVG"] mjx-tool {
  display: inline-block;
  position: relative;
  width: 0;
  height: 0;
}

[jax="SVG"] mjx-tool &gt; mjx-tip {
  position: absolute;
  top: 0;
  left: 0;
}

mjx-tool &gt; mjx-tip {
  display: inline-block;
  padding: .2em;
  border: 1px solid #888;
  font-size: 70%;
  background-color: #F8F8F8;
  color: black;
  box-shadow: 2px 2px 5px #AAAAAA;
}

g[data-mml-node="maction"][data-toggle] {
  cursor: pointer;
}

mjx-status {
  display: block;
  position: fixed;
  left: 1em;
  bottom: 1em;
  min-width: 25%;
  padding: .2em .4em;
  border: 1px solid #888;
  font-size: 90%;
  background-color: #F8F8F8;
  color: black;
}

foreignObject[data-mjx-xml] {
  font-family: initial;
  line-height: normal;
  overflow: visible;
}

mjx-container[jax="SVG"] path[data-c], mjx-container[jax="SVG"] use[data-c] {
  stroke-width: 3;
}
        </style>
    </defs>
    <g>
        <g>
            <rect x="361" y="61" width="100" height="100" fill="none" stroke="none" pointer-events="all"/>
        </g>
        <g>
            <rect x="561" y="61" width="100" height="100" fill="none" stroke="none" pointer-events="all"/>
        </g>
        <g>
            <rect x="561" y="261" width="100" height="100" fill="none" stroke="none" pointer-events="all"/>
        </g>
        <g>
            <rect x="361" y="261" width="100" height="100" fill="none" stroke="none" pointer-events="all"/>
        </g>
        <g>
            <rect x="11" y="211" width="200" height="200" fill="#ffffff" stroke="#000000" stroke-width="2" pointer-events="all" style="fill: light-dark(#ffffff, var(--ge-dark-color, #121212)); stroke: light-dark(rgb(0, 0, 0), rgb(255, 255, 255));"/>
        </g>
        <g>
            <rect x="81" y="411" width="60" height="30" fill="none" stroke="none" pointer-events="all"/>
        </g>
        <g>
            <g transform="translate(-0.5 -0.5)">
                <switch>
                    <foreignObject style="overflow: visible; text-align: left;" pointer-events="none" width="100%" height="100%" requiredFeatures="http://www.w3.org/TR/SVG11/feature#Extensibility">
                        <div xmlns="http://www.w3.org/1999/xhtml" style="display: flex; align-items: unsafe center; justify-content: unsafe center; width: 58px; height: 1px; padding-top: 426px; margin-left: 82px;">
                            <div style="box-sizing: border-box; font-size: 0; text-align: center; color: #000000; ">
                                <div style="display: inline-block; font-size: 15px; font-family: &quot;Helvetica&quot;; color: light-dark(#000000, #ffffff); line-height: 1.2; pointer-events: all; font-weight: bold; white-space: normal; word-wrap: normal; ">
                                    <mjx-container class="MathJax" jax="SVG" display="true">
                                        <svg xmlns="http://www.w3.org/2000/svg" width="2.875ex" height="1.902ex" role="img" focusable="false" viewBox="0 -683 1271 840.8" xmlns:xlink="http://www.w3.org/1999/xlink" style="vertical-align: -0.357ex;">
                                            <defs>
                                                <path id="MJX-18-TEX-I-1D44A" d="M436 683Q450 683 486 682T553 680Q604 680 638 681T677 682Q695 682 695 674Q695 670 692 659Q687 641 683 639T661 637Q636 636 621 632T600 624T597 615Q597 603 613 377T629 138L631 141Q633 144 637 151T649 170T666 200T690 241T720 295T759 362Q863 546 877 572T892 604Q892 619 873 628T831 637Q817 637 817 647Q817 650 819 660Q823 676 825 679T839 682Q842 682 856 682T895 682T949 681Q1015 681 1034 683Q1048 683 1048 672Q1048 666 1045 655T1038 640T1028 637Q1006 637 988 631T958 617T939 600T927 584L923 578L754 282Q586 -14 585 -15Q579 -22 561 -22Q546 -22 542 -17Q539 -14 523 229T506 480L494 462Q472 425 366 239Q222 -13 220 -15T215 -19Q210 -22 197 -22Q178 -22 176 -15Q176 -12 154 304T131 622Q129 631 121 633T82 637H58Q51 644 51 648Q52 671 64 683H76Q118 680 176 680Q301 680 313 683H323Q329 677 329 674T327 656Q322 641 318 637H297Q236 634 232 620Q262 160 266 136L501 550L499 587Q496 629 489 632Q483 636 447 637Q428 637 422 639T416 648Q416 650 418 660Q419 664 420 669T421 676T424 680T428 682T436 683Z"/>
                                                <path id="MJX-18-TEX-I-1D456" d="M184 600Q184 624 203 642T247 661Q265 661 277 649T290 619Q290 596 270 577T226 557Q211 557 198 567T184 600ZM21 287Q21 295 30 318T54 369T98 420T158 442Q197 442 223 419T250 357Q250 340 236 301T196 196T154 83Q149 61 149 51Q149 26 166 26Q175 26 185 29T208 43T235 78T260 137Q263 149 265 151T282 153Q302 153 302 143Q302 135 293 112T268 61T223 11T161 -11Q129 -11 102 10T74 74Q74 91 79 106T122 220Q160 321 166 341T173 380Q173 404 156 404H154Q124 404 99 371T61 287Q60 286 59 284T58 281T56 279T53 278T49 278T41 278H27Q21 284 21 287Z"/>
                                            </defs>
                                            <g stroke="currentColor" fill="currentColor" stroke-width="0" transform="scale(1,-1)">
                                                <g data-mml-node="math">
                                                    <g data-mml-node="msub">
                                                        <g data-mml-node="mi">
                                                            <use data-c="1D44A" xlink:href="#MJX-18-TEX-I-1D44A"/>
                                                        </g>
                                                        <g data-mml-node="mi" transform="translate(977,-150) scale(0.707)">
                                                            <use data-c="1D456" xlink:href="#MJX-18-TEX-I-1D456"/>
                                                        </g>
                                                    </g>
                                                </g>
                                            </g>
                                        </svg>
                                    </mjx-container>
                                </div>
                            </div>
                        </div>
                    </foreignObject>
                    <text x="111" y="431" fill="light-dark(#000000, #ffffff)" font-family="&quot;Helvetica&quot;" font-size="15px" text-anchor="middle" font-weight="bold">
                        $$W_i$$
                    </text>
                </switch>
            </g>
        </g>
        <g>
            <rect x="481" y="411" width="60" height="30" fill="none" stroke="none" pointer-events="all"/>
        </g>
        <g>
            <g transform="translate(-0.5 -0.5)">
                <switch>
                    <foreignObject style="overflow: visible; text-align: left;" pointer-events="none" width="100%" height="100%" requiredFeatures="http://www.w3.org/TR/SVG11/feature#Extensibility">
                        <div xmlns="http://www.w3.org/1999/xhtml" style="display: flex; align-items: unsafe center; justify-content: unsafe center; width: 58px; height: 1px; padding-top: 426px; margin-left: 482px;">
                            <div style="box-sizing: border-box; font-size: 0; text-align: center; color: #000000; ">
                                <div style="display: inline-block; font-size: 15px; font-family: &quot;Helvetica&quot;; color: light-dark(#000000, #ffffff); line-height: 1.2; pointer-events: all; font-weight: bold; white-space: normal; word-wrap: normal; ">
                                    <mjx-container class="MathJax" jax="SVG" display="true">
                                        <svg xmlns="http://www.w3.org/2000/svg" width="4.92ex" height="2.016ex" role="img" focusable="false" viewBox="0 -683 2174.6 891" xmlns:xlink="http://www.w3.org/1999/xlink" style="vertical-align: -0.471ex;">
                                            <defs>
                                                <path id="MJX-19-TEX-I-1D44A" d="M436 683Q450 683 486 682T553 680Q604 680 638 681T677 682Q695 682 695 674Q695 670 692 659Q687 641 683 639T661 637Q636 636 621 632T600 624T597 615Q597 603 613 377T629 138L631 141Q633 144 637 151T649 170T666 200T690 241T720 295T759 362Q863 546 877 572T892 604Q892 619 873 628T831 637Q817 637 817 647Q817 650 819 660Q823 676 825 679T839 682Q842 682 856 682T895 682T949 681Q1015 681 1034 683Q1048 683 1048 672Q1048 666 1045 655T1038 640T1028 637Q1006 637 988 631T958 617T939 600T927 584L923 578L754 282Q586 -14 585 -15Q579 -22 561 -22Q546 -22 542 -17Q539 -14 523 229T506 480L494 462Q472 425 366 239Q222 -13 220 -15T215 -19Q210 -22 197 -22Q178 -22 176 -15Q176 -12 154 304T131 622Q129 631 121 633T82 637H58Q51 644 51 648Q52 671 64 683H76Q118 680 176 680Q301 680 313 683H323Q329 677 329 674T327 656Q322 641 318 637H297Q236 634 232 620Q262 160 266 136L501 550L499 587Q496 629 489 632Q483 636 447 637Q428 637 422 639T416 648Q416 650 418 660Q419 664 420 669T421 676T424 680T428 682T436 683Z"/>
                                                <path id="MJX-19-TEX-I-1D456" d="M184 600Q184 624 203 642T247 661Q265 661 277 649T290 619Q290 596 270 577T226 557Q211 557 198 567T184 600ZM21 287Q21 295 30 318T54 369T98 420T158 442Q197 442 223 419T250 357Q250 340 236 301T196 196T154 83Q149 61 149 51Q149 26 166 26Q175 26 185 29T208 43T235 78T260 137Q263 149 265 151T282 153Q302 153 302 143Q302 135 293 112T268 61T223 11T161 -11Q129 -11 102 10T74 74Q74 91 79 106T122 220Q160 321 166 341T173 380Q173 404 156 404H154Q124 404 99 371T61 287Q60 286 59 284T58 281T56 279T53 278T49 278T41 278H27Q21 284 21 287Z"/>
                                                <path id="MJX-19-TEX-N-2B" d="M56 237T56 250T70 270H369V420L370 570Q380 583 389 583Q402 583 409 568V270H707Q722 262 722 250T707 230H409V-68Q401 -82 391 -82H389H387Q375 -82 369 -68V230H70Q56 237 56 250Z"/>
                                                <path id="MJX-19-TEX-N-31" d="M213 578L200 573Q186 568 160 563T102 556H83V602H102Q149 604 189 617T245 641T273 663Q275 666 285 666Q294 666 302 660V361L303 61Q310 54 315 52T339 48T401 46H427V0H416Q395 3 257 3Q121 3 100 0H88V46H114Q136 46 152 46T177 47T193 50T201 52T207 57T213 61V578Z"/>
                                            </defs>
                                            <g stroke="currentColor" fill="currentColor" stroke-width="0" transform="scale(1,-1)">
                                                <g data-mml-node="math">
                                                    <g data-mml-node="msub">
                                                        <g data-mml-node="mi">
                                                            <use data-c="1D44A" xlink:href="#MJX-19-TEX-I-1D44A"/>
                                                        </g>
                                                        <g data-mml-node="TeXAtom" transform="translate(977,-150) scale(0.707)" data-mjx-texclass="ORD">
                                                            <g data-mml-node="mi">
                                                                <use data-c="1D456" xlink:href="#MJX-19-TEX-I-1D456"/>
                                                            </g>
                                                            <g data-mml-node="mo" transform="translate(345,0)">
                                                                <use data-c="2B" xlink:href="#MJX-19-TEX-N-2B"/>
                                                            </g>
                                                            <g data-mml-node="mn" transform="translate(1123,0)">
                                                                <use data-c="31" xlink:href="#MJX-19-TEX-N-31"/>
                                                            </g>
                                                        </g>
                                                    </g>
                                                </g>
                                            </g>
                                        </svg>
                                    </mjx-container>
                                </div>
                            </div>
                        </div>
                    </foreignObject>
                    <text x="511" y="431" fill="light-dark(#000000, #ffffff)" font-family="&quot;Helvetica&quot;" font-size="15px" text-anchor="middle" font-weight="bold">
                        $$W_{i +...
                    </text>
                </switch>
            </g>
        </g>
        <g>
            <rect x="311" y="211" width="200" height="200" fill="#ffffff" stroke="#000000" stroke-width="2" transform="translate(0,311)scale(1,-1)translate(0,-311)rotate(-90,411,311)" pointer-events="all" style="fill: light-dark(#ffffff, var(--ge-dark-color, #121212)); stroke: light-dark(rgb(0, 0, 0), rgb(255, 255, 255));"/>
        </g>
        <g>
            <g transform="translate(-0.5 -0.5)">
                <switch>
                    <foreignObject style="overflow: visible; text-align: left;" pointer-events="none" width="100%" height="100%" requiredFeatures="http://www.w3.org/TR/SVG11/feature#Extensibility">
                        <div xmlns="http://www.w3.org/1999/xhtml" style="display: flex; align-items: unsafe center; justify-content: unsafe center; width: 198px; height: 1px; padding-top: 311px; margin-left: 312px;">
                            <div style="box-sizing: border-box; font-size: 0; text-align: center; color: #000000; ">
                                <div style="display: inline-block; font-size: 15px; font-family: &quot;Helvetica&quot;; color: light-dark(#000000, #ffffff); line-height: 1.2; pointer-events: all; font-weight: bold; white-space: normal; word-wrap: normal; ">
                                    0
                                </div>
                            </div>
                        </div>
                    </foreignObject>
                    <text x="411" y="316" fill="light-dark(#000000, #ffffff)" font-family="&quot;Helvetica&quot;" font-size="15px" text-anchor="middle" font-weight="bold">
                        0
                    </text>
                </switch>
            </g>
        </g>
        <g>
            <rect x="311" y="11" width="200" height="200" fill="#ffffff" stroke="#000000" stroke-width="2" pointer-events="all" style="fill: light-dark(#ffffff, var(--ge-dark-color, #121212)); stroke: light-dark(rgb(0, 0, 0), rgb(255, 255, 255));"/>
        </g>
        <g>
            <g transform="translate(-0.5 -0.5)">
                <switch>
                    <foreignObject style="overflow: visible; text-align: left;" pointer-events="none" width="100%" height="100%" requiredFeatures="http://www.w3.org/TR/SVG11/feature#Extensibility">
                        <div xmlns="http://www.w3.org/1999/xhtml" style="display: flex; align-items: unsafe center; justify-content: unsafe center; width: 198px; height: 1px; padding-top: 111px; margin-left: 312px;">
                            <div style="box-sizing: border-box; font-size: 0; text-align: center; color: #000000; ">
                                <div style="display: inline-block; font-size: 15px; font-family: &quot;Helvetica&quot;; color: light-dark(#000000, #ffffff); line-height: 1.2; pointer-events: all; font-weight: bold; white-space: normal; word-wrap: normal; ">
                                    1
                                </div>
                            </div>
                        </div>
                    </foreignObject>
                    <text x="411" y="116" fill="light-dark(#000000, #ffffff)" font-family="&quot;Helvetica&quot;" font-size="15px" text-anchor="middle" font-weight="bold">
                        1
                    </text>
                </switch>
            </g>
        </g>
        <g>
            <rect x="511" y="11" width="200" height="200" fill="#ffffff" stroke="#000000" stroke-width="2" pointer-events="all" style="fill: light-dark(#ffffff, var(--ge-dark-color, #121212)); stroke: light-dark(rgb(0, 0, 0), rgb(255, 255, 255));"/>
        </g>
        <g>
            <g transform="translate(-0.5 -0.5)">
                <switch>
                    <foreignObject style="overflow: visible; text-align: left;" pointer-events="none" width="100%" height="100%" requiredFeatures="http://www.w3.org/TR/SVG11/feature#Extensibility">
                        <div xmlns="http://www.w3.org/1999/xhtml" style="display: flex; align-items: unsafe center; justify-content: unsafe center; width: 198px; height: 1px; padding-top: 111px; margin-left: 512px;">
                            <div style="box-sizing: border-box; font-size: 0; text-align: center; color: #000000; ">
                                <div style="display: inline-block; font-size: 15px; font-family: &quot;Helvetica&quot;; color: light-dark(#000000, #ffffff); line-height: 1.2; pointer-events: all; font-weight: bold; white-space: normal; word-wrap: normal; ">
                                    2
                                </div>
                            </div>
                        </div>
                    </foreignObject>
                    <text x="611" y="116" fill="light-dark(#000000, #ffffff)" font-family="&quot;Helvetica&quot;" font-size="15px" text-anchor="middle" font-weight="bold">
                        2
                    </text>
                </switch>
            </g>
        </g>
        <g>
            <rect x="511" y="211" width="200" height="200" fill="#ffffff" stroke="#000000" stroke-width="2" pointer-events="all" style="fill: light-dark(#ffffff, var(--ge-dark-color, #121212)); stroke: light-dark(rgb(0, 0, 0), rgb(255, 255, 255));"/>
        </g>
        <g>
            <g transform="translate(-0.5 -0.5)">
                <switch>
                    <foreignObject style="overflow: visible; text-align: left;" pointer-events="none" width="100%" height="100%" requiredFeatures="http://www.w3.org/TR/SVG11/feature#Extensibility">
                        <div xmlns="http://www.w3.org/1999/xhtml" style="display: flex; align-items: unsafe center; justify-content: unsafe center; width: 198px; height: 1px; padding-top: 311px; margin-left: 512px;">
                            <div style="box-sizing: border-box; font-size: 0; text-align: center; color: #000000; ">
                                <div style="display: inline-block; font-size: 15px; font-family: &quot;Helvetica&quot;; color: light-dark(#000000, #ffffff); line-height: 1.2; pointer-events: all; font-weight: bold; white-space: normal; word-wrap: normal; ">
                                    3
                                </div>
                            </div>
                        </div>
                    </foreignObject>
                    <text x="611" y="316" fill="light-dark(#000000, #ffffff)" font-family="&quot;Helvetica&quot;" font-size="15px" text-anchor="middle" font-weight="bold">
                        3
                    </text>
                </switch>
            </g>
        </g>
        <g>
            <path d="M 461 111 L 552.76 111" fill="none" stroke="#000000" stroke-width="2" stroke-miterlimit="10" pointer-events="stroke" style="stroke: light-dark(rgb(0, 0, 0), rgb(255, 255, 255));"/>
            <path d="M 558.76 111 L 550.76 115 L 552.76 111 L 550.76 107 Z" fill="#000000" stroke="#000000" stroke-width="2" stroke-miterlimit="10" pointer-events="all" style="fill: light-dark(rgb(0, 0, 0), rgb(255, 255, 255)); stroke: light-dark(rgb(0, 0, 0), rgb(255, 255, 255));"/>
        </g>
        <g>
            <path d="M 611 161 L 611 252.76" fill="none" stroke="#000000" stroke-width="2" stroke-miterlimit="10" pointer-events="stroke" style="stroke: light-dark(rgb(0, 0, 0), rgb(255, 255, 255));"/>
            <path d="M 611 258.76 L 607 250.76 L 611 252.76 L 615 250.76 Z" fill="#000000" stroke="#000000" stroke-width="2" stroke-miterlimit="10" pointer-events="all" style="fill: light-dark(rgb(0, 0, 0), rgb(255, 255, 255)); stroke: light-dark(rgb(0, 0, 0), rgb(255, 255, 255));"/>
        </g>
        <g>
            <path d="M 411 261 L 411 169.24" fill="none" stroke="#000000" stroke-width="2" stroke-miterlimit="10" pointer-events="stroke" style="stroke: light-dark(rgb(0, 0, 0), rgb(255, 255, 255));"/>
            <path d="M 411 163.24 L 415 171.24 L 411 169.24 L 407 171.24 Z" fill="#000000" stroke="#000000" stroke-width="2" stroke-miterlimit="10" pointer-events="all" style="fill: light-dark(rgb(0, 0, 0), rgb(255, 255, 255)); stroke: light-dark(rgb(0, 0, 0), rgb(255, 255, 255));"/>
        </g>
        <g>
            <rect x="161" y="361" width="50" height="50" fill="#d5e8d4" stroke="#82b366" stroke-width="2" pointer-events="all" style="fill: light-dark(rgb(213, 232, 212), rgb(31, 47, 30)); stroke: light-dark(rgb(130, 179, 102), rgb(68, 110, 44));"/>
        </g>
        <g>
            <rect x="11" y="361" width="50" height="50" fill="#f8cecc" stroke="#b85450" stroke-width="2" pointer-events="all" style="fill: light-dark(rgb(248, 206, 204), rgb(81, 45, 43)); stroke: light-dark(rgb(184, 84, 80), rgb(215, 129, 126));"/>
        </g>
        <g>
            <rect x="661" y="161" width="50" height="50" fill="#d5e8d4" stroke="#82b366" stroke-width="2" pointer-events="all" style="fill: light-dark(rgb(213, 232, 212), rgb(31, 47, 30)); stroke: light-dark(rgb(130, 179, 102), rgb(68, 110, 44));"/>
        </g>
        <g>
            <rect x="511" y="161" width="50" height="50" fill="#f8cecc" stroke="#b85450" stroke-width="2" pointer-events="all" style="fill: light-dark(rgb(248, 206, 204), rgb(81, 45, 43)); stroke: light-dark(rgb(184, 84, 80), rgb(215, 129, 126));"/>
        </g>
        <g>
            <rect x="311" y="211" width="50" height="50" fill="#d5e8d4" stroke="#82b366" stroke-width="2" pointer-events="all" style="fill: light-dark(rgb(213, 232, 212), rgb(31, 47, 30)); stroke: light-dark(rgb(130, 179, 102), rgb(68, 110, 44));"/>
        </g>
        <g>
            <rect x="311" y="361" width="50" height="50" fill="#f8cecc" stroke="#b85450" stroke-width="2" pointer-events="all" style="fill: light-dark(rgb(248, 206, 204), rgb(81, 45, 43)); stroke: light-dark(rgb(184, 84, 80), rgb(215, 129, 126));"/>
        </g>
        <g>
            <rect x="461" y="161" width="50" height="50" fill="#d5e8d4" stroke="#82b366" stroke-width="2" pointer-events="all" style="fill: light-dark(rgb(213, 232, 212), rgb(31, 47, 30)); stroke: light-dark(rgb(130, 179, 102), rgb(68, 110, 44));"/>
        </g>
        <g>
            <rect x="311" y="161" width="50" height="50" fill="#f8cecc" stroke="#b85450" stroke-width="2" pointer-events="all" style="fill: light-dark(rgb(248, 206, 204), rgb(81, 45, 43)); stroke: light-dark(rgb(184, 84, 80), rgb(215, 129, 126));"/>
        </g>
        <g>
            <rect x="661" y="211" width="50" height="50" fill="#f8cecc" stroke="#b85450" stroke-width="2" pointer-events="all" style="fill: light-dark(rgb(248, 206, 204), rgb(81, 45, 43)); stroke: light-dark(rgb(184, 84, 80), rgb(215, 129, 126));"/>
        </g>
        <g>
            <rect x="661" y="361" width="50" height="50" fill="#d5e8d4" stroke="#82b366" stroke-width="2" pointer-events="all" style="fill: light-dark(rgb(213, 232, 212), rgb(31, 47, 30)); stroke: light-dark(rgb(130, 179, 102), rgb(68, 110, 44));"/>
        </g>
    </g>
    <switch>
        <g requiredFeatures="http://www.w3.org/TR/SVG11/feature#Extensibility"/>
        <a transform="translate(0,-5)" xlink:href="https://www.drawio.com/doc/faq/svg-export-text-problems" target="_blank">
            <text text-anchor="middle" font-size="10px" x="50%" y="100%">
                Text is not SVG - cannot display
            </text>
        </a>
    </switch>
</svg>