<?xml version="1.0" encoding="iso-8859-1"?>
<!-- Uploaded to: SVG Repo, www.svgrepo.com, Generator: SVG Repo Mixer Tools -->
<svg height="800px" width="800px" version="1.1" id="Layer_1" xmlns="http://www.w3.org/2000/svg" xmlns:xlink="http://www.w3.org/1999/xlink" 
	 viewBox="0 0 512 512" xml:space="preserve">
<g>
	<path style="fill:#FFFFFF;" d="M256,417.046c5.61,0,10.922,1.266,15.673,3.524v-68.308h-31.347v68.308
		C245.078,418.312,250.39,417.046,256,417.046z"/>
	<path style="fill:#FFFFFF;" d="M219.429,453.617c0-5.61,1.266-10.922,3.524-15.673H7.837v31.347h215.116
		C220.695,464.54,219.429,459.226,219.429,453.617z"/>
	<path style="fill:#FFFFFF;" d="M289.047,437.944c2.257,4.751,3.524,10.063,3.524,15.673c0,5.61-1.266,10.922-3.524,15.673h215.116
		v-31.347H289.047z"/>
</g>
<g>
	<polygon style="fill:#B3D8F4;" points="256,73.626 113.301,168.758 113.301,352.262 398.699,352.262 398.699,168.758 	"/>
	<polygon style="fill:#B3D8F4;" points="144.645,97.63 144.645,49.242 113.298,49.242 113.298,118.529 	"/>
</g>
<polygon style="fill:#3D9AE2;" points="422.041,184.32 256,73.626 89.959,184.32 66.775,149.545 256,23.393 445.225,149.545 "/>
<path style="fill:#FFFFFF;" d="M203.755,274.554c0,14.427,23.391,26.122,52.245,26.122c28.854,0,52.245-11.696,52.245-26.122
	v-83.592c0-14.427-23.391-26.122-52.245-26.122s-52.245,11.696-52.245,26.122V274.554"/>
<circle style="fill:#3D9AE2;" cx="256" cy="453.622" r="36.571"/>
<path d="M512,430.108H293.65c-3.582-5.715-8.425-10.558-14.14-14.14v-55.87h127.028V193.877h-15.673v150.549h-269.73V193.877
	h-15.673v166.222H232.49v55.87c-5.715,3.582-10.558,8.425-14.14,14.14H0v47.02h218.351c7.858,12.538,21.791,20.897,37.649,20.897
	c15.857,0,29.79-8.359,37.648-20.897H512V430.108z M15.673,461.455v-15.673h196.625c-0.456,2.545-0.706,5.161-0.706,7.836
	c0,2.675,0.251,5.291,0.706,7.838H15.673z M248.163,360.1h15.673v49.815c-2.545-0.456-5.162-0.706-7.837-0.706
	c-2.675,0-5.291,0.251-7.837,0.706V360.1z M256,482.352c-15.845,0-28.735-12.891-28.735-28.735c0-15.844,12.89-28.735,28.735-28.735
	s28.735,12.891,28.735,28.735C284.735,469.461,271.845,482.352,256,482.352z M496.327,461.455H299.702
	c0.456-2.546,0.706-5.163,0.706-7.838c0-2.675-0.251-5.29-0.706-7.836h196.625V461.455z"/>
<path d="M256,83.045l168.214,112.143l31.879-47.818L256,13.974L55.907,147.37l31.879,47.818L256,83.045z M256,32.811
	l178.357,118.906l-14.49,21.736L256,64.208L92.133,173.453l-14.491-21.736L256,32.811z"/>
<path d="M195.987,189.306h-0.004c-0.043,0.549-0.065,1.102-0.065,1.656v83.592c0,19.36,25.83,33.959,60.082,33.959
	s60.082-14.599,60.082-33.959v-83.592c0-19.36-25.83-33.959-60.082-33.959C222.733,157.003,197.416,170.776,195.987,189.306z
	 M289.438,286.017c-8.673,4.336-20.86,6.823-33.438,6.823c-27.109,0-44.408-10.829-44.408-18.286v-18.461
	c10.819,6.607,26.452,10.625,44.408,10.625s33.589-4.017,44.408-10.625v18.461C300.408,278.297,296.307,282.581,289.438,286.017z
	 M289.438,244.221c-8.673,4.336-20.86,6.823-33.438,6.823c-12.577,0-24.765-2.487-33.438-6.823
	c-6.869-3.435-10.97-7.72-10.97-11.463c0-0.146,0.005-0.29,0.017-0.434l-0.017-0.001v-18.026
	c10.819,6.607,26.452,10.625,44.408,10.625s33.589-4.017,44.408-10.625v18.461C300.408,236.501,296.307,240.785,289.438,244.221z
	 M300.408,190.962c0,3.743-4.101,8.028-10.97,11.463c-8.673,4.336-20.86,6.823-33.438,6.823c-12.577,0-24.765-2.487-33.438-6.823
	c-6.869-3.435-10.97-7.72-10.97-11.463c0-3.743,4.101-8.028,10.97-11.463c8.674-4.336,20.861-6.823,33.438-6.823
	C283.109,172.677,300.408,183.506,300.408,190.962z"/>
<polygon points="121.135,57.079 136.808,57.079 136.808,76.024 152.482,76.024 152.482,41.405 105.462,41.405 105.462,96.922 
	121.135,96.922 "/>
</svg>